<svg width="20" height="15" viewBox="0 0 20 15" fill="none" xmlns="http://www.w3.org/2000/svg">
<g clip-path="url(#clip0_37_2)">
<path d="M2.7793 0.875C2.2207 0.875 1.73372 1.08268 1.31836 1.49805C0.917318 1.89909 0.716797 2.37891 0.716797 2.9375V12.5625C0.716797 13.1211 0.917318 13.6081 1.31836 14.0234C1.73372 14.4245 2.2207 14.625 2.7793 14.625H17.9043C18.4629 14.625 18.9427 14.4245 19.3438 14.0234C19.7591 13.6081 19.9668 13.1211 19.9668 12.5625V2.9375C19.9668 2.37891 19.7591 1.89909 19.3438 1.49805C18.9427 1.08268 18.4629 0.875 17.9043 0.875H2.7793ZM2.7793 2.25H17.9043C18.1048 2.25 18.2695 2.31445 18.3984 2.44336C18.5273 2.57227 18.5918 2.73698 18.5918 2.9375V4.3125H2.7793V5.6875H18.5918V12.5625C18.5918 12.763 18.5273 12.9277 18.3984 13.0566C18.2695 13.1855 18.1048 13.25 17.9043 13.25H2.7793C2.57878 13.25 2.41406 13.1855 2.28516 13.0566C2.15625 12.9277 2.0918 12.763 2.0918 12.5625V2.9375C2.0918 2.73698 2.15625 2.57227 2.28516 2.44336C2.41406 2.31445 2.57878 2.25 2.7793 2.25Z" fill="#8181A5"/>
</g>
<defs>
<clipPath id="clip0_37_2">
<rect width="20" height="15" fill="white"/>
</clipPath>
</defs>
</svg>
