<svg width="16" height="14" viewBox="0 0 16 14" fill="none" xmlns="http://www.w3.org/2000/svg">
<path d="M4.625 0.429688L0.6875 2.39844V14H15.3125V3.875H8.5625V2.39844L4.625 0.429688ZM4.625 1.69531L7.4375 3.10156V12.875H1.8125V3.10156L4.625 1.69531ZM2.9375 3.875V5H4.0625V3.875H2.9375ZM5.1875 3.875V5H6.3125V3.875H5.1875ZM8.5625 5H14.1875V12.875H8.5625V5ZM2.9375 6.125V7.25H4.0625V6.125H2.9375ZM5.1875 6.125V7.25H6.3125V6.125H5.1875ZM9.6875 6.125V7.25H10.8125V6.125H9.6875ZM11.9375 6.125V7.25H13.0625V6.125H11.9375ZM2.9375 8.375V9.5H4.0625V8.375H2.9375ZM5.1875 8.375V9.5H6.3125V8.375H5.1875ZM9.6875 8.375V9.5H10.8125V8.375H9.6875ZM11.9375 8.375V9.5H13.0625V8.375H11.9375ZM2.9375 10.625V11.75H4.0625V10.625H2.9375ZM5.1875 10.625V11.75H6.3125V10.625H5.1875ZM9.6875 10.625V11.75H10.8125V10.625H9.6875ZM11.9375 10.625V11.75H13.0625V10.625H11.9375Z" fill="#8181A5"/>
</svg>
