<svg width="18" height="14" viewBox="0 0 18 14" fill="none" xmlns="http://www.w3.org/2000/svg">
<path d="M2.25 0.5V2.55664L0.5625 4.80664V5C0.5625 5.45703 0.726562 5.85547 1.05469 6.19531C1.39453 6.52344 1.79297 6.6875 2.25 6.6875V14H15.75V6.6875C16.207 6.6875 16.5996 6.52344 16.9277 6.19531C17.2676 5.85547 17.4375 5.45703 17.4375 5V4.80664L15.75 2.55664V0.5H2.25ZM3.375 1.625H14.625V2.1875H3.375V1.625ZM3.09375 3.3125H14.9062L16.2598 5.12305C16.2246 5.25195 16.1602 5.35742 16.0664 5.43945C15.9844 5.52148 15.8789 5.5625 15.75 5.5625C15.5977 5.5625 15.4629 5.50977 15.3457 5.4043C15.2402 5.28711 15.1875 5.15234 15.1875 5H14.0625C14.0625 5.15234 14.0039 5.28711 13.8867 5.4043C13.7812 5.50977 13.6523 5.5625 13.5 5.5625C13.3477 5.5625 13.2129 5.50977 13.0957 5.4043C12.9902 5.28711 12.9375 5.15234 12.9375 5H11.8125C11.8125 5.15234 11.7539 5.28711 11.6367 5.4043C11.5312 5.50977 11.4023 5.5625 11.25 5.5625C11.0977 5.5625 10.9629 5.50977 10.8457 5.4043C10.7402 5.28711 10.6875 5.15234 10.6875 5H9.5625C9.5625 5.15234 9.50391 5.28711 9.38672 5.4043C9.28125 5.50977 9.15234 5.5625 9 5.5625C8.84766 5.5625 8.71289 5.50977 8.5957 5.4043C8.49023 5.28711 8.4375 5.15234 8.4375 5H7.3125C7.3125 5.15234 7.25391 5.28711 7.13672 5.4043C7.03125 5.50977 6.90234 5.5625 6.75 5.5625C6.59766 5.5625 6.46289 5.50977 6.3457 5.4043C6.24023 5.28711 6.1875 5.15234 6.1875 5H5.0625C5.0625 5.15234 5.00391 5.28711 4.88672 5.4043C4.78125 5.50977 4.65234 5.5625 4.5 5.5625C4.34766 5.5625 4.21289 5.50977 4.0957 5.4043C3.99023 5.28711 3.9375 5.15234 3.9375 5H2.8125C2.8125 5.15234 2.75391 5.28711 2.63672 5.4043C2.53125 5.50977 2.40234 5.5625 2.25 5.5625C2.12109 5.5625 2.00977 5.52148 1.91602 5.43945C1.83398 5.35742 1.77539 5.25195 1.74023 5.12305L3.09375 3.3125ZM3.375 6.24805C3.70312 6.54102 4.07812 6.6875 4.5 6.6875C4.92188 6.6875 5.29688 6.54102 5.625 6.24805C5.95312 6.54102 6.32812 6.6875 6.75 6.6875C7.17188 6.6875 7.54688 6.54102 7.875 6.24805C8.20312 6.54102 8.57812 6.6875 9 6.6875C9.42188 6.6875 9.79688 6.54102 10.125 6.24805C10.4531 6.54102 10.8281 6.6875 11.25 6.6875C11.6719 6.6875 12.0469 6.54102 12.375 6.24805C12.7031 6.54102 13.0781 6.6875 13.5 6.6875C13.9219 6.6875 14.2969 6.54102 14.625 6.24805V10.0625H3.375V6.24805ZM3.375 11.1875H14.625V12.875H3.375V11.1875Z" fill="#8181A5"/>
</svg>
