<svg width="14" height="17" viewBox="0 0 14 17" fill="none" xmlns="http://www.w3.org/2000/svg">
<path d="M5.6543 0.5C5.25326 0.5 4.92383 0.628906 4.66602 0.886719C4.4082 1.14453 4.2793 1.47396 4.2793 1.875V2.5625H0.154297V3.9375H0.841797V14.9375C0.841797 15.4961 1.04232 15.9831 1.44336 16.3984C1.85872 16.7995 2.3457 17 2.9043 17H11.1543C11.7129 17 12.1927 16.7995 12.5938 16.3984C13.0091 15.9831 13.2168 15.4961 13.2168 14.9375V3.9375H13.9043V2.5625H9.7793V1.875C9.7793 1.47396 9.65039 1.14453 9.39258 0.886719C9.13477 0.628906 8.80534 0.5 8.4043 0.5H5.6543ZM5.6543 1.875H8.4043V2.5625H5.6543V1.875ZM2.2168 3.9375H11.8418V14.9375C11.8418 15.1237 11.7702 15.2884 11.627 15.4316C11.498 15.5605 11.3405 15.625 11.1543 15.625H2.9043C2.7181 15.625 2.55339 15.5605 2.41016 15.4316C2.28125 15.2884 2.2168 15.1237 2.2168 14.9375V3.9375ZM3.5918 6V13.5625H4.9668V6H3.5918ZM6.3418 6V13.5625H7.7168V6H6.3418ZM9.0918 6V13.5625H10.4668V6H9.0918Z" fill="#8181A5"/>
</svg>
