<svg width="20" height="16" viewBox="0 0 20 16" fill="none" xmlns="http://www.w3.org/2000/svg">
<path d="M8.2793 0.1875C7.9069 0.1875 7.58464 0.323568 7.3125 0.595703C7.04036 0.867839 6.9043 1.1901 6.9043 1.5625V2.9375H0.716797V15.3125H19.9668V2.9375H13.7793V1.5625C13.7793 1.1901 13.6432 0.867839 13.3711 0.595703C13.099 0.323568 12.7767 0.1875 12.4043 0.1875H8.2793ZM8.2793 1.5625H12.4043V2.9375H8.2793V1.5625ZM2.0918 4.3125H18.5918V7.75H15.8418V7.0625H13.0918V7.75H7.5918V7.0625H4.8418V7.75H2.0918V4.3125ZM2.0918 9.125H4.8418V9.8125H7.5918V9.125H13.0918V9.8125H15.8418V9.125H18.5918V13.9375H2.0918V9.125Z" fill="#8181A5"/>
</svg>
