<svg width="18" height="19" viewBox="0 0 18 19" fill="none" xmlns="http://www.w3.org/2000/svg">
<path d="M9 0.8125C7.38151 0.8125 5.8776 1.2207 4.48828 2.03711C3.14193 2.82487 2.07487 3.89193 1.28711 5.23828C0.470703 6.6276 0.0625 8.13151 0.0625 9.75C0.0625 11.3685 0.470703 12.8724 1.28711 14.2617C2.07487 15.6081 3.14193 16.6751 4.48828 17.4629C5.8776 18.2793 7.38151 18.6875 9 18.6875C10.6185 18.6875 12.1224 18.2793 13.5117 17.4629C14.8581 16.6751 15.9251 15.6081 16.7129 14.2617C17.5293 12.8724 17.9375 11.3685 17.9375 9.75C17.9375 8.13151 17.5293 6.6276 16.7129 5.23828C15.9251 3.89193 14.8581 2.82487 13.5117 2.03711C12.1224 1.2207 10.6185 0.8125 9 0.8125ZM9 1.5C10.4896 1.5 11.8789 1.8724 13.168 2.61719C14.4141 3.34766 15.4023 4.33594 16.1328 5.58203C16.8776 6.87109 17.25 8.26042 17.25 9.75C17.25 11.2396 16.8776 12.6289 16.1328 13.918C15.4023 15.1641 14.4141 16.1523 13.168 16.8828C11.8789 17.6276 10.4896 18 9 18C7.51042 18 6.12109 17.6276 4.83203 16.8828C3.58594 16.1523 2.59766 15.1641 1.86719 13.918C1.1224 12.6289 0.75 11.2396 0.75 9.75C0.75 8.26042 1.1224 6.87109 1.86719 5.58203C2.59766 4.33594 3.58594 3.34766 4.83203 2.61719C6.12109 1.8724 7.51042 1.5 9 1.5ZM9 2.875C7.75391 2.875 6.60091 3.1901 5.54102 3.82031C4.49544 4.42188 3.67188 5.24544 3.07031 6.29102C2.4401 7.35091 2.125 8.50391 2.125 9.75C2.125 10.9961 2.4401 12.1491 3.07031 13.209C3.67188 14.2546 4.49544 15.0781 5.54102 15.6797C6.60091 16.3099 7.75391 16.625 9 16.625C10.2461 16.625 11.3991 16.3099 12.459 15.6797C13.5046 15.0781 14.3281 14.2546 14.9297 13.209C15.5599 12.1491 15.875 10.9961 15.875 9.75C15.875 8.50391 15.5599 7.35091 14.9297 6.29102C14.3281 5.24544 13.5046 4.42188 12.459 3.82031C11.3991 3.1901 10.2461 2.875 9 2.875ZM9 4.25C10.0026 4.25 10.9193 4.50065 11.75 5.00195C12.5951 5.48893 13.2611 6.15495 13.748 7C14.2493 7.83073 14.5 8.7474 14.5 9.75C14.5 10.7526 14.2493 11.6764 13.748 12.5215C13.2611 13.3522 12.5951 14.0182 11.75 14.5195C10.9193 15.0065 10.0026 15.25 9 15.25C7.9974 15.25 7.07357 15.0065 6.22852 14.5195C5.39779 14.0182 4.73177 13.3522 4.23047 12.5215C3.74349 11.6764 3.5 10.7526 3.5 9.75C3.5 8.7474 3.74349 7.83073 4.23047 7C4.73177 6.15495 5.39779 5.48893 6.22852 5.00195C7.07357 4.50065 7.9974 4.25 9 4.25ZM9 5.625C8.25521 5.625 7.56771 5.8112 6.9375 6.18359C6.30729 6.55599 5.80599 7.05729 5.43359 7.6875C5.0612 8.31771 4.875 9.00521 4.875 9.75C4.875 10.4948 5.0612 11.1823 5.43359 11.8125C5.80599 12.4427 6.30729 12.944 6.9375 13.3164C7.56771 13.6888 8.25521 13.875 9 13.875C9.74479 13.875 10.4323 13.6888 11.0625 13.3164C11.6927 12.944 12.194 12.4427 12.5664 11.8125C12.9388 11.1823 13.125 10.4948 13.125 9.75C13.125 9.00521 12.9388 8.31771 12.5664 7.6875C12.194 7.05729 11.6927 6.55599 11.0625 6.18359C10.4323 5.8112 9.74479 5.625 9 5.625ZM9 7C9.5013 7 9.95964 7.12174 10.375 7.36523C10.8047 7.60872 11.1413 7.94531 11.3848 8.375C11.6283 8.79036 11.75 9.2487 11.75 9.75C11.75 10.2513 11.6283 10.7168 11.3848 11.1465C11.1413 11.5618 10.8047 11.8913 10.375 12.1348C9.95964 12.3783 9.5013 12.5 9 12.5C8.4987 12.5 8.0332 12.3783 7.60352 12.1348C7.18815 11.8913 6.85872 11.5618 6.61523 11.1465C6.37174 10.7168 6.25 10.2513 6.25 9.75C6.25 9.2487 6.37174 8.79036 6.61523 8.375C6.85872 7.94531 7.18815 7.60872 7.60352 7.36523C8.0332 7.12174 8.4987 7 9 7ZM9 8.375C8.61328 8.375 8.28385 8.51107 8.01172 8.7832C7.75391 9.04102 7.625 9.36328 7.625 9.75C7.625 10.1367 7.75391 10.4661 8.01172 10.7383C8.28385 10.9961 8.61328 11.125 9 11.125C9.38672 11.125 9.70898 10.9961 9.9668 10.7383C10.2389 10.4661 10.375 10.1367 10.375 9.75C10.375 9.36328 10.2389 9.04102 9.9668 8.7832C9.70898 8.51107 9.38672 8.375 9 8.375Z" fill="#8181A5"/>
</svg>
