<svg width="20" height="15" viewBox="0 0 20 15" fill="none" xmlns="http://www.w3.org/2000/svg">
<path d="M2.7793 0.875C2.2207 0.875 1.73372 1.08268 1.31836 1.49805C0.917318 1.89909 0.716797 2.37891 0.716797 2.9375V12.5625C0.716797 13.1211 0.917318 13.6081 1.31836 14.0234C1.73372 14.4245 2.2207 14.625 2.7793 14.625H17.9043C18.4629 14.625 18.9427 14.4245 19.3438 14.0234C19.7591 13.6081 19.9668 13.1211 19.9668 12.5625V2.9375C19.9668 2.37891 19.7591 1.89909 19.3438 1.49805C18.9427 1.08268 18.4629 0.875 17.9043 0.875H2.7793ZM2.7793 2.25H17.9043C18.1048 2.25 18.2695 2.31445 18.3984 2.44336C18.5273 2.57227 18.5918 2.73698 18.5918 2.9375V12.5625C18.5918 12.763 18.5273 12.9277 18.3984 13.0566C18.2695 13.1855 18.1048 13.25 17.9043 13.25H2.7793C2.57878 13.25 2.41406 13.1855 2.28516 13.0566C2.15625 12.9277 2.0918 12.763 2.0918 12.5625V2.9375C2.0918 2.73698 2.15625 2.57227 2.28516 2.44336C2.41406 2.31445 2.57878 2.25 2.7793 2.25ZM6.9043 3.625C6.40299 3.625 5.94466 3.75391 5.5293 4.01172C5.11393 4.25521 4.77734 4.58464 4.51953 5C4.27604 5.41536 4.1543 5.8737 4.1543 6.375C4.1543 6.7474 4.22591 7.10547 4.36914 7.44922C4.52669 7.77865 4.73438 8.07227 4.99219 8.33008C4.51953 8.64518 4.14714 9.05339 3.875 9.55469C3.60286 10.056 3.4668 10.6003 3.4668 11.1875H4.8418C4.8418 10.6146 5.04232 10.1276 5.44336 9.72656C5.8444 9.32552 6.33138 9.125 6.9043 9.125C7.47721 9.125 7.96419 9.32552 8.36523 9.72656C8.76628 10.1276 8.9668 10.6146 8.9668 11.1875H10.3418C10.3418 10.6003 10.2057 10.056 9.93359 9.55469C9.66146 9.05339 9.28906 8.64518 8.81641 8.33008C9.07422 8.07227 9.27474 7.77865 9.41797 7.44922C9.57552 7.10547 9.6543 6.7474 9.6543 6.375C9.6543 5.8737 9.52539 5.41536 9.26758 5C9.02409 4.58464 8.69466 4.25521 8.2793 4.01172C7.86393 3.75391 7.4056 3.625 6.9043 3.625ZM11.7168 4.3125V5.6875H17.2168V4.3125H11.7168ZM6.9043 5C7.29102 5 7.61328 5.13607 7.87109 5.4082C8.14323 5.66602 8.2793 5.98828 8.2793 6.375C8.2793 6.76172 8.14323 7.09115 7.87109 7.36328C7.61328 7.62109 7.29102 7.75 6.9043 7.75C6.51758 7.75 6.18815 7.62109 5.91602 7.36328C5.6582 7.09115 5.5293 6.76172 5.5293 6.375C5.5293 5.98828 5.6582 5.66602 5.91602 5.4082C6.18815 5.13607 6.51758 5 6.9043 5ZM11.7168 7.0625V8.4375H17.2168V7.0625H11.7168ZM11.7168 9.8125V11.1875H15.1543V9.8125H11.7168Z" fill="#8181A5"/>
</svg>
