<svg width="12" height="17" viewBox="0 0 12 17" fill="none" xmlns="http://www.w3.org/2000/svg">
<path d="M6 0.5C5.02604 0.5 4.11654 0.714844 3.27148 1.14453C2.42643 1.5599 1.76042 2.13281 1.27344 2.86328C0.757812 3.60807 0.5 4.42448 0.5 5.3125V7.375H4.625V5.3125C4.625 5.16927 4.72526 5.0332 4.92578 4.9043C5.21224 4.7181 5.57031 4.625 6 4.625C6.44401 4.625 6.80208 4.7181 7.07422 4.9043C7.27474 5.0332 7.375 5.16927 7.375 5.3125C7.375 5.4987 7.33919 5.67057 7.26758 5.82812C7.21029 5.98568 7.11003 6.15039 6.9668 6.32227C6.82357 6.49414 6.51562 6.7806 6.04297 7.18164L5.89258 7.31055C5.30534 7.81185 4.86849 8.27018 4.58203 8.68555C4.15234 9.3444 3.9375 10.0534 3.9375 10.8125V11.5H8.0625V10.8125C8.0625 10.6979 8.08398 10.5905 8.12695 10.4902C8.18424 10.39 8.27018 10.2826 8.38477 10.168C8.51367 10.0391 8.75716 9.82422 9.11523 9.52344L9.54492 9.17969C10.1178 8.70703 10.5547 8.20573 10.8555 7.67578C11.2852 6.97396 11.5 6.1862 11.5 5.3125C11.5 4.4388 11.2422 3.6224 10.7266 2.86328C10.2396 2.14714 9.57357 1.57422 8.72852 1.14453C7.89779 0.714844 6.98828 0.5 6 0.5ZM6 1.875C6.75911 1.875 7.46094 2.03971 8.10547 2.36914C8.72135 2.66992 9.20833 3.08529 9.56641 3.61523C9.9388 4.14518 10.125 4.71094 10.125 5.3125C10.125 5.98568 9.98177 6.55143 9.69531 7.00977C9.49479 7.33919 9.14388 7.71159 8.64258 8.12695L8.36328 8.36328C7.93359 8.72135 7.61849 9.00065 7.41797 9.20117C7.1888 9.44466 7.0026 9.7526 6.85938 10.125H5.52734C5.6276 9.79557 5.77799 9.49479 5.97852 9.22266C6.19336 8.9362 6.46549 8.64974 6.79492 8.36328L6.90234 8.27734C7.44661 7.81901 7.83333 7.44661 8.0625 7.16016C8.52083 6.58724 8.75 5.97135 8.75 5.3125C8.75 4.9974 8.66406 4.71094 8.49219 4.45312C8.33464 4.18099 8.11979 3.95182 7.84766 3.76562C7.33203 3.42188 6.71615 3.25 6 3.25C5.28385 3.25 4.66797 3.42188 4.15234 3.76562C3.88021 3.95182 3.6582 4.18099 3.48633 4.45312C3.32878 4.71094 3.25 4.9974 3.25 5.3125V6H1.875V5.3125C1.875 4.69661 2.05404 4.13086 2.41211 3.61523C2.78451 3.08529 3.28581 2.66276 3.91602 2.34766C4.54622 2.03255 5.24089 1.875 6 1.875ZM3.9375 12.875V17H8.0625V12.875H3.9375ZM5.3125 14.25H6.6875V15.625H5.3125V14.25Z" fill="#8181A5"/>
</svg>
