<svg width="16" height="13" viewBox="0 0 16 13" fill="none" xmlns="http://www.w3.org/2000/svg">
<path d="M0.6875 0.0625V10.1875C0.6875 10.5977 0.787109 10.9785 0.986328 11.3301C1.18555 11.6699 1.45508 11.9395 1.79492 12.1387C2.14648 12.3379 2.52734 12.4375 2.9375 12.4375H13.0625C13.4727 12.4375 13.8477 12.3379 14.1875 12.1387C14.5391 11.9395 14.8145 11.6699 15.0137 11.3301C15.2129 10.9785 15.3125 10.5977 15.3125 10.1875V4H11.9375V0.0625H0.6875ZM1.8125 1.1875H10.8125V10.1875C10.8125 10.5742 10.918 10.9492 11.1289 11.3125H2.9375C2.59766 11.3125 2.32227 11.2129 2.11133 11.0137C1.91211 10.8027 1.8125 10.5273 1.8125 10.1875V1.1875ZM2.9375 2.3125V5.125H9.6875V2.3125H2.9375ZM4.0625 3.4375H8.5625V4H4.0625V3.4375ZM11.9375 5.125H14.1875V10.1875C14.1875 10.5273 14.082 10.8027 13.8711 11.0137C13.6719 11.2129 13.4023 11.3125 13.0625 11.3125C12.7227 11.3125 12.4473 11.2129 12.2363 11.0137C12.0371 10.8027 11.9375 10.5273 11.9375 10.1875V5.125ZM2.9375 5.6875V6.8125H5.75V5.6875H2.9375ZM6.875 5.6875V6.8125H9.6875V5.6875H6.875ZM2.9375 7.375V8.5H5.75V7.375H2.9375ZM6.875 7.375V8.5H9.6875V7.375H6.875ZM2.9375 9.0625V10.1875H5.75V9.0625H2.9375ZM6.875 9.0625V10.1875H9.6875V9.0625H6.875Z" fill="#1C1D21"/>
</svg>
