<svg width="16" height="16" viewBox="0 0 16 16" fill="none" xmlns="http://www.w3.org/2000/svg">
<path d="M2.26172 0.1875L2.1543 0.767578L0.779297 9.70508V15.3125H15.9043V9.70508L14.5293 0.767578L14.4219 0.1875H2.26172ZM3.44336 1.5625H13.2402L14.4004 9.125H9.7168V9.8125C9.7168 10.1992 9.58073 10.5286 9.30859 10.8008C9.05078 11.0586 8.72852 11.1875 8.3418 11.1875C7.95508 11.1875 7.62565 11.0586 7.35352 10.8008C7.0957 10.5286 6.9668 10.1992 6.9668 9.8125V9.125H2.2832L3.44336 1.5625ZM2.1543 10.5H5.7207C5.87826 11.1016 6.19336 11.5957 6.66602 11.9824C7.15299 12.3691 7.71159 12.5625 8.3418 12.5625C8.97201 12.5625 9.52344 12.3691 9.99609 11.9824C10.4831 11.5957 10.8053 11.1016 10.9629 10.5H14.5293V13.9375H2.1543V10.5Z" fill="#8181A5"/>
</svg>
