<svg width="14" height="14" viewBox="0 0 14 14" fill="none" xmlns="http://www.w3.org/2000/svg">
<path d="M8.5 0.5C7.59375 0.5 6.75521 0.729167 5.98438 1.1875C5.22396 1.625 4.625 2.22396 4.1875 2.98438C3.72917 3.75521 3.5 4.59375 3.5 5.5C3.5 6.09375 3.59896 6.66146 3.79688 7.20312C3.99479 7.73438 4.27083 8.21875 4.625 8.65625L0.640625 12.6406L1.35938 13.3594L5.34375 9.375C5.78125 9.72917 6.26562 10.0052 6.79688 10.2031C7.33854 10.401 7.90625 10.5 8.5 10.5C9.40625 10.5 10.2448 10.2708 11.0156 9.8125C11.776 9.375 12.375 8.77604 12.8125 8.01562C13.2708 7.24479 13.5 6.40625 13.5 5.5C13.5 4.59375 13.2708 3.75521 12.8125 2.98438C12.375 2.22396 11.776 1.625 11.0156 1.1875C10.2448 0.729167 9.40625 0.5 8.5 0.5ZM8.5 1.5C9.22917 1.5 9.89583 1.68229 10.5 2.04688C11.1146 2.40104 11.599 2.88542 11.9531 3.5C12.3177 4.10417 12.5 4.77083 12.5 5.5C12.5 6.22917 12.3177 6.90104 11.9531 7.51562C11.599 8.11979 11.1146 8.60417 10.5 8.96875C9.89583 9.32292 9.22917 9.5 8.5 9.5C7.77083 9.5 7.09896 9.32292 6.48438 8.96875C5.88021 8.60417 5.39583 8.11979 5.03125 7.51562C4.67708 6.90104 4.5 6.22917 4.5 5.5C4.5 4.77083 4.67708 4.10417 5.03125 3.5C5.39583 2.88542 5.88021 2.40104 6.48438 2.04688C7.09896 1.68229 7.77083 1.5 8.5 1.5Z" fill="#8181A5"/>
</svg>
