<svg width="16" height="12" viewBox="0 0 16 12" fill="none" xmlns="http://www.w3.org/2000/svg">
<path d="M8 0.0625C7.63672 0.0625 7.30859 0.167969 7.01562 0.378906C6.73438 0.589844 6.53516 0.859375 6.41797 1.1875H2.375V2.3125H3.16602L0.757812 6.53125L0.6875 6.67188V6.8125C0.6875 7.31641 0.810547 7.78516 1.05664 8.21875C1.31445 8.65234 1.66016 8.99805 2.09375 9.25586C2.52734 9.50195 2.99609 9.625 3.5 9.625C4.00391 9.625 4.47266 9.50195 4.90625 9.25586C5.33984 8.99805 5.67969 8.65234 5.92578 8.21875C6.18359 7.78516 6.3125 7.31641 6.3125 6.8125V6.67188L6.24219 6.53125L3.83398 2.3125H6.41797C6.5 2.54688 6.62891 2.75781 6.80469 2.94531C6.99219 3.12109 7.20312 3.25 7.4375 3.33203V10.75H5.1875V11.875H10.8125V10.75H8.5625V3.33203C8.79688 3.25 9.00195 3.12109 9.17773 2.94531C9.36523 2.75781 9.5 2.54688 9.58203 2.3125H12.166L9.75781 6.53125L9.6875 6.67188V6.8125C9.6875 7.31641 9.81055 7.78516 10.0566 8.21875C10.3145 8.65234 10.6602 8.99805 11.0938 9.25586C11.5273 9.50195 11.9961 9.625 12.5 9.625C13.0039 9.625 13.4727 9.50195 13.9062 9.25586C14.3398 8.99805 14.6797 8.65234 14.9258 8.21875C15.1836 7.78516 15.3125 7.31641 15.3125 6.8125V6.67188L15.2422 6.53125L12.834 2.3125H13.625V1.1875H9.58203C9.46484 0.859375 9.25977 0.589844 8.9668 0.378906C8.68555 0.167969 8.36328 0.0625 8 0.0625ZM8 1.1875C8.16406 1.1875 8.29883 1.24023 8.4043 1.3457C8.50977 1.45117 8.5625 1.58594 8.5625 1.75C8.5625 1.90234 8.50977 2.03711 8.4043 2.1543C8.29883 2.25977 8.16406 2.3125 8 2.3125C7.84766 2.3125 7.71289 2.25977 7.5957 2.1543C7.49023 2.03711 7.4375 1.90234 7.4375 1.75C7.4375 1.58594 7.49023 1.45117 7.5957 1.3457C7.71289 1.24023 7.84766 1.1875 8 1.1875ZM3.5 4.01758L4.7832 6.25H2.2168L3.5 4.01758ZM12.5 4.01758L13.7832 6.25H11.2168L12.5 4.01758ZM1.95312 7.375H5.04688C4.92969 7.70312 4.73047 7.97266 4.44922 8.18359C4.17969 8.39453 3.86328 8.5 3.5 8.5C3.13672 8.5 2.81445 8.39453 2.5332 8.18359C2.26367 7.97266 2.07031 7.70312 1.95312 7.375ZM10.9531 7.375H14.0469C13.9297 7.70312 13.7305 7.97266 13.4492 8.18359C13.1797 8.39453 12.8633 8.5 12.5 8.5C12.1367 8.5 11.8145 8.39453 11.5332 8.18359C11.2637 7.97266 11.0703 7.70312 10.9531 7.375Z" fill="#8181A5"/>
</svg>
