<svg width="30" height="30" viewBox="0 0 30 30" fill="none" xmlns="http://www.w3.org/2000/svg">
<path opacity="0.25" d="M14.684 25.388C20.3283 25.388 24.904 20.8123 24.904 15.168C24.904 9.52365 20.3283 4.948 14.684 4.948C9.03964 4.948 4.46399 9.52365 4.46399 15.168C4.46399 20.8123 9.03964 25.388 14.684 25.388Z" fill="#5E81F4"/>
<path opacity="0.5" d="M6.29197 13.272C3.74882 13.2711 1.45626 11.7394 0.482105 9.39017C-0.492053 7.04099 0.043756 4.33636 1.83997 2.53601C4.29689 0.0803216 8.27905 0.0803216 10.736 2.53601C11.9162 3.71538 12.5794 5.31549 12.5794 6.98401C12.5794 8.65253 11.9162 10.2526 10.736 11.432C9.56029 12.6149 7.95975 13.2776 6.29197 13.272Z" fill="#5E81F4"/>
<path opacity="0.5" d="M23.308 29.896C20.3056 29.8971 17.7208 27.7768 17.1348 24.8322C16.5487 21.8876 18.1248 18.9392 20.8988 17.7906C23.6727 16.6421 26.8717 17.6134 28.5387 20.1105C30.2058 22.6075 29.8763 25.9344 27.752 28.056C26.5753 29.2374 24.9754 29.8998 23.308 29.896Z" fill="#5E81F4"/>
<path d="M6.45995 29.828C3.91534 29.8303 1.61982 28.2998 0.643611 25.9499C-0.332599 23.6 0.202701 20.8934 1.99995 19.092C2.2747 18.8241 2.57326 18.5818 2.89195 18.368L3.19995 18.172C3.41595 18.044 3.63995 17.928 3.87595 17.816C3.99595 17.764 4.11595 17.708 4.24795 17.66C4.49353 17.5703 4.74473 17.4968 4.99995 17.44L5.15995 17.396C5.18739 17.3862 5.21545 17.3782 5.24395 17.372L6.66795 17.268C6.85195 17.268 7.06795 17.304 7.26395 17.332H7.30795H7.49595H7.55595H7.61595H7.99995C10.4616 17.3091 12.8115 16.3006 14.5239 14.532C16.2459 12.7768 17.1887 10.4023 17.1399 7.94401V7.87601V7.80801C17.1258 7.73144 17.1178 7.65386 17.1159 7.57601V7.38401L17.0639 7.20001C17.0639 7.08801 17.0359 6.96801 17.0319 6.85201L17.1279 5.53201V5.50001V5.47601C17.1279 5.44401 17.1879 5.26801 17.1879 5.26801C17.2488 4.99683 17.3262 4.72965 17.4199 4.46801C17.4639 4.34801 17.5199 4.22801 17.5759 4.10801C17.681 3.87115 17.8012 3.64133 17.9359 3.42001V3.38401C17.9919 3.29201 18.0439 3.20001 18.1079 3.11201C18.3181 2.79533 18.5578 2.49934 18.8239 2.22801C21.2849 -0.237387 25.2785 -0.240968 27.7439 2.22001C30.2093 4.68099 30.2129 8.67461 27.7519 11.14C27.4787 11.4056 27.1814 11.6453 26.8639 11.856C26.7679 11.924 26.6839 11.972 26.5999 12.024L26.5519 12.052C26.3199 12.188 26.0959 12.308 25.8799 12.408C25.7519 12.464 25.6359 12.52 25.5159 12.564C25.2635 12.6557 25.0057 12.7318 24.7439 12.792C24.6885 12.8038 24.6338 12.8185 24.5799 12.836L24.4799 12.864L23.0839 12.96C22.9079 12.96 22.7199 12.928 22.5239 12.904H22.4359H22.2559H22.1399H22.0759H21.7639C16.6622 12.9786 12.5776 17.1579 12.6199 22.26V22.328V22.4C12.6308 22.4702 12.6374 22.541 12.6399 22.612C12.6399 22.688 12.6399 22.76 12.6599 22.832C12.6799 22.904 12.6599 22.968 12.6839 23.04C12.6979 23.1435 12.7059 23.2476 12.7079 23.352L12.6079 24.724C12.6005 24.7605 12.5911 24.7965 12.5799 24.832L12.5439 24.956C12.4867 25.2277 12.4105 25.495 12.3159 25.756C12.2719 25.876 12.2119 26 12.1559 26.124C12.0543 26.355 11.9408 26.5807 11.8159 26.8C11.7519 26.912 11.6919 27.012 11.6239 27.108C11.412 27.428 11.1695 27.7268 10.8999 28C9.72423 29.1804 8.12599 29.8428 6.45995 29.84V29.828Z" fill="#5E81F4"/>
</svg>
