<svg width="16" height="12" viewBox="0 0 16 12" fill="none" xmlns="http://www.w3.org/2000/svg">
<path d="M8.01038 0.6875C7.29553 0.6875 6.60413 0.845703 5.93616 1.16211C5.32678 1.45508 4.78186 1.87109 4.30139 2.41016L4.2135 2.39258C4.15491 2.38086 4.10803 2.375 4.07288 2.375C3.66272 2.375 3.28772 2.48047 2.94788 2.69141C2.60803 2.89063 2.33264 3.16016 2.1217 3.5C1.92249 3.83984 1.82288 4.21484 1.82288 4.625C1.31897 4.92969 0.914673 5.32227 0.609985 5.80273C0.293579 6.30664 0.135376 6.85742 0.135376 7.45508C0.135376 8.05273 0.28772 8.60938 0.592407 9.125C0.897095 9.64062 1.30725 10.0508 1.82288 10.3555C2.3385 10.6602 2.901 10.8125 3.51038 10.8125H6.32288V9.6875H3.51038C3.10022 9.6875 2.71936 9.58789 2.3678 9.38867C2.02795 9.18945 1.75842 8.91992 1.5592 8.58008C1.35999 8.22852 1.26038 7.84766 1.26038 7.4375C1.26038 6.98047 1.38342 6.56445 1.62952 6.18945C1.88733 5.81445 2.22131 5.53906 2.63147 5.36328L3.01819 5.20508L2.94788 4.625C2.94788 4.30859 3.05334 4.04492 3.26428 3.83398C3.48694 3.61133 3.75647 3.5 4.07288 3.5C4.15491 3.5 4.2428 3.51172 4.33655 3.53516L4.68811 3.62305L4.89905 3.3418C5.26233 2.87305 5.7135 2.50391 6.25256 2.23438C6.80334 1.95312 7.38342 1.8125 7.9928 1.8125C8.60217 1.8125 9.17053 1.94141 9.69788 2.19922C10.2369 2.45703 10.6881 2.81445 11.0514 3.27148C11.4264 3.7168 11.6842 4.2207 11.8248 4.7832L11.9303 5.22266L12.4049 5.20508C12.6158 5.19336 12.651 5.1875 12.5104 5.1875C12.9205 5.1875 13.2955 5.28711 13.6354 5.48633C13.9869 5.68555 14.2623 5.96094 14.4615 6.3125C14.6608 6.65234 14.7604 7.02734 14.7604 7.4375C14.7604 7.84766 14.6608 8.22852 14.4615 8.58008C14.2623 8.91992 13.9869 9.18945 13.6354 9.38867C13.2955 9.58789 12.9205 9.6875 12.5104 9.6875H9.69788V10.8125H12.5104C13.1198 10.8125 13.6823 10.6602 14.1979 10.3555C14.7135 10.0508 15.1237 9.64062 15.4283 9.125C15.733 8.60938 15.8854 8.04688 15.8854 7.4375C15.8854 6.85156 15.7448 6.3125 15.4635 5.82031C15.1823 5.32812 14.8014 4.93555 14.3209 4.64258C13.8405 4.33789 13.3131 4.16211 12.7389 4.11523C12.5045 3.45898 12.153 2.87305 11.6842 2.35742C11.2272 1.83008 10.6881 1.42578 10.067 1.14453C9.42249 0.839844 8.73694 0.6875 8.01038 0.6875ZM8.01038 5.1875L5.76038 7.4375H7.44788V11.9375H8.57288V7.4375H10.2604L8.01038 5.1875Z" fill="#1C1D21"/>
</svg>
