<svg width="18" height="19" viewBox="0 0 18 19" fill="none" xmlns="http://www.w3.org/2000/svg">
<path d="M7 0.1875C6.1263 0.1875 5.31706 0.402344 4.57227 0.832031C3.8418 1.26172 3.26172 1.84896 2.83203 2.59375C2.40234 3.32422 2.1875 4.1263 2.1875 5C2.1875 5.83073 2.3737 6.59701 2.74609 7.29883C3.13281 7.98633 3.64844 8.55208 4.29297 8.99609C3.47656 9.35417 2.75326 9.84831 2.12305 10.4785C1.49284 11.1087 1.00586 11.832 0.662109 12.6484C0.304036 13.4935 0.125 14.3815 0.125 15.3125H1.5C1.5 14.3242 1.74349 13.4076 2.23047 12.5625C2.73177 11.7174 3.40495 11.0514 4.25 10.5645C5.09505 10.0632 6.01172 9.8125 7 9.8125C7.83073 9.8125 8.61133 9.9987 9.3418 10.3711V10.3496C9.4707 10.0775 9.57812 9.87695 9.66406 9.74805C9.79297 9.5332 9.9362 9.34701 10.0938 9.18945L9.68555 9.01758C10.3444 8.57357 10.86 8.00065 11.2324 7.29883C11.6191 6.59701 11.8125 5.83073 11.8125 5C11.8125 4.1263 11.5977 3.32422 11.168 2.59375C10.7383 1.84896 10.151 1.26172 9.40625 0.832031C8.67578 0.402344 7.8737 0.1875 7 0.1875ZM7 1.5625C7.63021 1.5625 8.20312 1.72005 8.71875 2.03516C9.2487 2.33594 9.66406 2.7513 9.96484 3.28125C10.2799 3.79688 10.4375 4.36979 10.4375 5C10.4375 5.63021 10.2799 6.21029 9.96484 6.74023C9.66406 7.25586 9.2487 7.67122 8.71875 7.98633C8.20312 8.28711 7.63021 8.4375 7 8.4375C6.36979 8.4375 5.78971 8.28711 5.25977 7.98633C4.74414 7.67122 4.32878 7.25586 4.01367 6.74023C3.71289 6.21029 3.5625 5.63021 3.5625 5C3.5625 4.36979 3.71289 3.79688 4.01367 3.28125C4.32878 2.7513 4.74414 2.33594 5.25977 2.03516C5.78971 1.72005 6.36979 1.5625 7 1.5625ZM13.1875 9.125C12.6862 9.125 12.2279 9.25391 11.8125 9.51172C11.3971 9.75521 11.0605 10.0846 10.8027 10.5C10.5592 10.9154 10.4375 11.3737 10.4375 11.875V13.25H8.375V18.75H18V13.25H15.9375V11.875C15.9375 11.3737 15.8086 10.9154 15.5508 10.5C15.3073 10.0846 14.9779 9.75521 14.5625 9.51172C14.1471 9.25391 13.6888 9.125 13.1875 9.125ZM13.1875 10.5C13.5599 10.5 13.8822 10.6361 14.1543 10.9082C14.4264 11.1803 14.5625 11.5026 14.5625 11.875V13.25H11.8125V11.875C11.8125 11.5026 11.9486 11.1803 12.2207 10.9082C12.4928 10.6361 12.8151 10.5 13.1875 10.5ZM9.75 14.625H16.625V17.375H9.75V14.625Z" fill="#8181A5"/>
</svg>
